<?xml version="1.0" encoding="UTF-8" standalone="no"?>
<!DOCTYPE svg PUBLIC "-//W3C//DTD SVG 1.1//EN"
 "http://www.w3.org/Graphics/SVG/1.1/DTD/svg11.dtd">
<!-- Generated by graphviz version 2.38.0 (20140413.2041)
 -->
<!-- Title: G Pages: 1 -->
<svg width="1117pt" height="889pt"
 viewBox="0.00 0.00 1116.74 889.00" xmlns="http://www.w3.org/2000/svg" xmlns:xlink="http://www.w3.org/1999/xlink">
<g id="graph0" class="graph" transform="scale(1 1) rotate(0) translate(4 885)">
<title>G</title>
<polygon fill="white" stroke="none" points="-4,4 -4,-885 1112.74,-885 1112.74,4 -4,4"/>
<!-- Id0000000000a1aca0 -->
<g id="node1" class="node"><title>Id0000000000a1aca0</title>
<ellipse fill="none" stroke="black" cx="368.745" cy="-863" rx="41.6928" ry="18"/>
<text text-anchor="middle" x="368.745" y="-859.3" font-family="Times New Roman,serif" font-size="14.00">program</text>
</g>
<!-- Id0000000000a1ac20 -->
<g id="node2" class="node"><title>Id0000000000a1ac20</title>
<ellipse fill="none" stroke="black" cx="368.745" cy="-790" rx="54.6905" ry="18"/>
<text text-anchor="middle" x="368.745" y="-786.3" font-family="Times New Roman,serif" font-size="14.00">def_method</text>
</g>
<!-- Id0000000000a1aca0&#45;&gt;Id0000000000a1ac20 -->
<g id="edge57" class="edge"><title>Id0000000000a1aca0&#45;&gt;Id0000000000a1ac20</title>
<path fill="none" stroke="black" d="M368.745,-844.813C368.745,-836.789 368.745,-827.047 368.745,-818.069"/>
<polygon fill="black" stroke="black" points="372.245,-818.029 368.745,-808.029 365.245,-818.029 372.245,-818.029"/>
</g>
<!-- IdName0000000000a1ac20 -->
<g id="node3" class="node"><title>IdName0000000000a1ac20</title>
<ellipse fill="none" stroke="black" cx="338.745" cy="-703" rx="27" ry="18"/>
<text text-anchor="middle" x="338.745" y="-699.3" font-family="Times New Roman,serif" font-size="14.00">free</text>
</g>
<!-- Id0000000000a1ac20&#45;&gt;IdName0000000000a1ac20 -->
<g id="edge1" class="edge"><title>Id0000000000a1ac20&#45;&gt;IdName0000000000a1ac20</title>
<path fill="none" stroke="black" d="M361.665,-772.003C359.37,-766.312 356.87,-759.912 354.745,-754 352,-746.367 349.23,-737.998 346.784,-730.327"/>
<polygon fill="black" stroke="black" points="350.118,-729.26 343.785,-720.766 343.439,-731.355 350.118,-729.26"/>
<text text-anchor="middle" x="369.745" y="-742.8" font-family="Times New Roman,serif" font-size="14.00">name</text>
</g>
<!-- Id0000000000a116a0 -->
<g id="node4" class="node"><title>Id0000000000a116a0</title>
<ellipse fill="none" stroke="black" cx="413.745" cy="-703" rx="29.795" ry="18"/>
<text text-anchor="middle" x="413.745" y="-699.3" font-family="Times New Roman,serif" font-size="14.00">body</text>
</g>
<!-- Id0000000000a1ac20&#45;&gt;Id0000000000a116a0 -->
<g id="edge56" class="edge"><title>Id0000000000a1ac20&#45;&gt;Id0000000000a116a0</title>
<path fill="none" stroke="black" d="M377.635,-772.207C384.087,-760.021 392.929,-743.318 400.249,-729.491"/>
<polygon fill="black" stroke="black" points="403.44,-730.945 405.026,-720.469 397.253,-727.669 403.44,-730.945"/>
</g>
<!-- Id0000000000a11650 -->
<g id="node5" class="node"><title>Id0000000000a11650</title>
<ellipse fill="none" stroke="black" cx="359.745" cy="-630" rx="27" ry="18"/>
<text text-anchor="middle" x="359.745" y="-626.3" font-family="Times New Roman,serif" font-size="14.00">stmt</text>
</g>
<!-- Id0000000000a116a0&#45;&gt;Id0000000000a11650 -->
<g id="edge7" class="edge"><title>Id0000000000a116a0&#45;&gt;Id0000000000a11650</title>
<path fill="none" stroke="black" d="M401.76,-686.243C394.769,-677.051 385.808,-665.269 377.959,-654.949"/>
<polygon fill="black" stroke="black" points="380.535,-652.554 371.695,-646.713 374.963,-656.791 380.535,-652.554"/>
</g>
<!-- Id0000000000a1abd0 -->
<g id="node11" class="node"><title>Id0000000000a1abd0</title>
<ellipse fill="none" stroke="black" cx="450.745" cy="-630" rx="27" ry="18"/>
<text text-anchor="middle" x="450.745" y="-626.3" font-family="Times New Roman,serif" font-size="14.00">stmt</text>
</g>
<!-- Id0000000000a116a0&#45;&gt;Id0000000000a1abd0 -->
<g id="edge55" class="edge"><title>Id0000000000a116a0&#45;&gt;Id0000000000a1abd0</title>
<path fill="none" stroke="black" d="M422.326,-685.533C426.856,-676.84 432.512,-665.987 437.583,-656.256"/>
<polygon fill="black" stroke="black" points="440.692,-657.864 442.21,-647.378 434.484,-654.629 440.692,-657.864"/>
</g>
<!-- Id0000000000a11610 -->
<g id="node6" class="node"><title>Id0000000000a11610</title>
<ellipse fill="none" stroke="black" cx="168.745" cy="-557" rx="27" ry="18"/>
<text text-anchor="middle" x="168.745" y="-553.3" font-family="Times New Roman,serif" font-size="14.00">=</text>
</g>
<!-- Id0000000000a11650&#45;&gt;Id0000000000a11610 -->
<g id="edge6" class="edge"><title>Id0000000000a11650&#45;&gt;Id0000000000a11610</title>
<path fill="none" stroke="black" d="M336.705,-620.436C303.006,-607.909 240.103,-584.526 201.573,-570.203"/>
<polygon fill="black" stroke="black" points="202.458,-566.798 191.865,-566.595 200.019,-573.36 202.458,-566.798"/>
</g>
<!-- Id0000000000a11590 -->
<g id="node7" class="node"><title>Id0000000000a11590</title>
<ellipse fill="none" stroke="black" cx="61.7445" cy="-484" rx="61.99" ry="18"/>
<text text-anchor="middle" x="61.7445" y="-480.3" font-family="Times New Roman,serif" font-size="14.00">var or method</text>
</g>
<!-- Id0000000000a11610&#45;&gt;Id0000000000a11590 -->
<g id="edge4" class="edge"><title>Id0000000000a11610&#45;&gt;Id0000000000a11590</title>
<path fill="none" stroke="black" d="M150.107,-543.633C134.67,-533.39 112.375,-518.596 94.0422,-506.431"/>
<polygon fill="black" stroke="black" points="95.676,-503.315 85.4083,-500.702 91.8056,-509.148 95.676,-503.315"/>
</g>
<!-- Id0000000000a115d0 -->
<g id="node9" class="node"><title>Id0000000000a115d0</title>
<ellipse fill="none" stroke="black" cx="168.745" cy="-484" rx="27" ry="18"/>
<text text-anchor="middle" x="168.745" y="-480.3" font-family="Times New Roman,serif" font-size="14.00">INT</text>
</g>
<!-- Id0000000000a11610&#45;&gt;Id0000000000a115d0 -->
<g id="edge5" class="edge"><title>Id0000000000a11610&#45;&gt;Id0000000000a115d0</title>
<path fill="none" stroke="black" d="M168.745,-538.813C168.745,-530.789 168.745,-521.047 168.745,-512.069"/>
<polygon fill="black" stroke="black" points="172.245,-512.029 168.745,-502.029 165.245,-512.029 172.245,-512.029"/>
</g>
<!-- IdVal0000000000a11590 -->
<g id="node8" class="node"><title>IdVal0000000000a11590</title>
<ellipse fill="none" stroke="black" cx="61.7445" cy="-397" rx="27" ry="18"/>
<text text-anchor="middle" x="61.7445" y="-393.3" font-family="Times New Roman,serif" font-size="14.00">a</text>
</g>
<!-- Id0000000000a11590&#45;&gt;IdVal0000000000a11590 -->
<g id="edge2" class="edge"><title>Id0000000000a11590&#45;&gt;IdVal0000000000a11590</title>
<path fill="none" stroke="black" d="M61.7445,-465.799C61.7445,-454.163 61.7445,-438.548 61.7445,-425.237"/>
<polygon fill="black" stroke="black" points="65.2446,-425.175 61.7445,-415.175 58.2446,-425.175 65.2446,-425.175"/>
</g>
<!-- IdVal0000000000a115d0 -->
<g id="node10" class="node"><title>IdVal0000000000a115d0</title>
<ellipse fill="none" stroke="black" cx="151.745" cy="-397" rx="27" ry="18"/>
<text text-anchor="middle" x="151.745" y="-393.3" font-family="Times New Roman,serif" font-size="14.00">2</text>
</g>
<!-- Id0000000000a115d0&#45;&gt;IdVal0000000000a115d0 -->
<g id="edge3" class="edge"><title>Id0000000000a115d0&#45;&gt;IdVal0000000000a115d0</title>
<path fill="none" stroke="black" d="M165.304,-465.799C162.962,-454.086 159.813,-438.342 157.139,-424.974"/>
<polygon fill="black" stroke="black" points="160.515,-424.005 155.122,-414.885 153.651,-425.378 160.515,-424.005"/>
</g>
<!-- Id0000000000a1abb0 -->
<g id="node12" class="node"><title>Id0000000000a1abb0</title>
<ellipse fill="none" stroke="black" cx="546.745" cy="-557" rx="36.2938" ry="18"/>
<text text-anchor="middle" x="546.745" y="-553.3" font-family="Times New Roman,serif" font-size="14.00">if_stmt</text>
</g>
<!-- Id0000000000a1abd0&#45;&gt;Id0000000000a1abb0 -->
<g id="edge54" class="edge"><title>Id0000000000a1abd0&#45;&gt;Id0000000000a1abb0</title>
<path fill="none" stroke="black" d="M468.352,-615.978C482.55,-605.477 502.773,-590.521 519.123,-578.429"/>
<polygon fill="black" stroke="black" points="521.308,-581.166 527.267,-572.405 517.146,-575.538 521.308,-581.166"/>
</g>
<!-- Id0000000000a118f0 -->
<g id="node13" class="node"><title>Id0000000000a118f0</title>
<ellipse fill="none" stroke="black" cx="298.745" cy="-484" rx="35.9954" ry="18"/>
<text text-anchor="middle" x="298.745" y="-480.3" font-family="Times New Roman,serif" font-size="14.00">branch</text>
</g>
<!-- Id0000000000a1abb0&#45;&gt;Id0000000000a118f0 -->
<g id="edge20" class="edge"><title>Id0000000000a1abb0&#45;&gt;Id0000000000a118f0</title>
<path fill="none" stroke="black" d="M516.086,-547.223C471.348,-534.415 388.132,-510.591 338.665,-496.429"/>
<polygon fill="black" stroke="black" points="339.523,-493.034 328.945,-493.646 337.596,-499.763 339.523,-493.034"/>
</g>
<!-- Id0000000000a11b20 -->
<g id="node26" class="node"><title>Id0000000000a11b20</title>
<ellipse fill="none" stroke="black" cx="546.745" cy="-484" rx="35.9954" ry="18"/>
<text text-anchor="middle" x="546.745" y="-480.3" font-family="Times New Roman,serif" font-size="14.00">branch</text>
</g>
<!-- Id0000000000a1abb0&#45;&gt;Id0000000000a11b20 -->
<g id="edge33" class="edge"><title>Id0000000000a1abb0&#45;&gt;Id0000000000a11b20</title>
<path fill="none" stroke="black" d="M546.745,-538.813C546.745,-530.789 546.745,-521.047 546.745,-512.069"/>
<polygon fill="black" stroke="black" points="550.245,-512.029 546.745,-502.029 543.245,-512.029 550.245,-512.029"/>
</g>
<!-- Id0000000000a1ab00 -->
<g id="node39" class="node"><title>Id0000000000a1ab00</title>
<ellipse fill="none" stroke="black" cx="713.745" cy="-484" rx="35.9954" ry="18"/>
<text text-anchor="middle" x="713.745" y="-480.3" font-family="Times New Roman,serif" font-size="14.00">branch</text>
</g>
<!-- Id0000000000a1abb0&#45;&gt;Id0000000000a1ab00 -->
<g id="edge46" class="edge"><title>Id0000000000a1abb0&#45;&gt;Id0000000000a1ab00</title>
<path fill="none" stroke="black" d="M573.576,-544.593C601.902,-532.55 646.701,-513.503 678.007,-500.194"/>
<polygon fill="black" stroke="black" points="679.422,-503.395 687.255,-496.262 676.683,-496.953 679.422,-503.395"/>
</g>
<!-- IdElse0000000000a1ab90 -->
<g id="node52" class="node"><title>IdElse0000000000a1ab90</title>
<ellipse fill="none" stroke="black" cx="823.745" cy="-484" rx="53.8905" ry="18"/>
<text text-anchor="middle" x="823.745" y="-480.3" font-family="Times New Roman,serif" font-size="14.00">else_branch</text>
</g>
<!-- Id0000000000a1abb0&#45;&gt;IdElse0000000000a1ab90 -->
<g id="edge53" class="edge"><title>Id0000000000a1abb0&#45;&gt;IdElse0000000000a1ab90</title>
<path fill="none" stroke="black" d="M578.368,-548.012C619.813,-537.528 694.755,-518.517 758.745,-502 763.372,-500.806 768.182,-499.558 773,-498.305"/>
<polygon fill="black" stroke="black" points="774.046,-501.65 782.84,-495.741 772.28,-494.876 774.046,-501.65"/>
</g>
<!-- Id0000000000a11760 -->
<g id="node14" class="node"><title>Id0000000000a11760</title>
<ellipse fill="none" stroke="black" cx="223.745" cy="-397" rx="27" ry="18"/>
<text text-anchor="middle" x="223.745" y="-393.3" font-family="Times New Roman,serif" font-size="14.00">==</text>
</g>
<!-- Id0000000000a118f0&#45;&gt;Id0000000000a11760 -->
<g id="edge12" class="edge"><title>Id0000000000a118f0&#45;&gt;Id0000000000a11760</title>
<path fill="none" stroke="black" d="M272.428,-471.658C261.674,-465.908 249.878,-458 241.745,-448 236.341,-441.357 232.49,-432.959 229.776,-424.951"/>
<polygon fill="black" stroke="black" points="233.083,-423.792 226.914,-415.179 226.365,-425.759 233.083,-423.792"/>
<text text-anchor="middle" x="268.245" y="-436.8" font-family="Times New Roman,serif" font-size="14.00">condition</text>
</g>
<!-- IdBody0000000000a118f0 -->
<g id="node19" class="node"><title>IdBody0000000000a118f0</title>
<ellipse fill="none" stroke="black" cx="298.745" cy="-397" rx="29.795" ry="18"/>
<text text-anchor="middle" x="298.745" y="-393.3" font-family="Times New Roman,serif" font-size="14.00">body</text>
</g>
<!-- Id0000000000a118f0&#45;&gt;IdBody0000000000a118f0 -->
<g id="edge19" class="edge"><title>Id0000000000a118f0&#45;&gt;IdBody0000000000a118f0</title>
<path fill="none" stroke="black" d="M298.745,-465.799C298.745,-454.163 298.745,-438.548 298.745,-425.237"/>
<polygon fill="black" stroke="black" points="302.245,-425.175 298.745,-415.175 295.245,-425.175 302.245,-425.175"/>
</g>
<!-- Id0000000000a116e0 -->
<g id="node15" class="node"><title>Id0000000000a116e0</title>
<ellipse fill="none" stroke="black" cx="116.745" cy="-324" rx="61.99" ry="18"/>
<text text-anchor="middle" x="116.745" y="-320.3" font-family="Times New Roman,serif" font-size="14.00">var or method</text>
</g>
<!-- Id0000000000a11760&#45;&gt;Id0000000000a116e0 -->
<g id="edge10" class="edge"><title>Id0000000000a11760&#45;&gt;Id0000000000a116e0</title>
<path fill="none" stroke="black" d="M205.107,-383.633C189.67,-373.39 167.375,-358.596 149.042,-346.431"/>
<polygon fill="black" stroke="black" points="150.676,-343.315 140.408,-340.702 146.806,-349.148 150.676,-343.315"/>
</g>
<!-- Id0000000000a11720 -->
<g id="node17" class="node"><title>Id0000000000a11720</title>
<ellipse fill="none" stroke="black" cx="223.745" cy="-324" rx="27" ry="18"/>
<text text-anchor="middle" x="223.745" y="-320.3" font-family="Times New Roman,serif" font-size="14.00">INT</text>
</g>
<!-- Id0000000000a11760&#45;&gt;Id0000000000a11720 -->
<g id="edge11" class="edge"><title>Id0000000000a11760&#45;&gt;Id0000000000a11720</title>
<path fill="none" stroke="black" d="M223.745,-378.813C223.745,-370.789 223.745,-361.047 223.745,-352.069"/>
<polygon fill="black" stroke="black" points="227.245,-352.029 223.745,-342.029 220.245,-352.029 227.245,-352.029"/>
</g>
<!-- IdVal0000000000a116e0 -->
<g id="node16" class="node"><title>IdVal0000000000a116e0</title>
<ellipse fill="none" stroke="black" cx="116.745" cy="-251" rx="27" ry="18"/>
<text text-anchor="middle" x="116.745" y="-247.3" font-family="Times New Roman,serif" font-size="14.00">a</text>
</g>
<!-- Id0000000000a116e0&#45;&gt;IdVal0000000000a116e0 -->
<g id="edge8" class="edge"><title>Id0000000000a116e0&#45;&gt;IdVal0000000000a116e0</title>
<path fill="none" stroke="black" d="M116.745,-305.813C116.745,-297.789 116.745,-288.047 116.745,-279.069"/>
<polygon fill="black" stroke="black" points="120.245,-279.029 116.745,-269.029 113.245,-279.029 120.245,-279.029"/>
</g>
<!-- IdVal0000000000a11720 -->
<g id="node18" class="node"><title>IdVal0000000000a11720</title>
<ellipse fill="none" stroke="black" cx="223.745" cy="-251" rx="27" ry="18"/>
<text text-anchor="middle" x="223.745" y="-247.3" font-family="Times New Roman,serif" font-size="14.00">0</text>
</g>
<!-- Id0000000000a11720&#45;&gt;IdVal0000000000a11720 -->
<g id="edge9" class="edge"><title>Id0000000000a11720&#45;&gt;IdVal0000000000a11720</title>
<path fill="none" stroke="black" d="M223.745,-305.813C223.745,-297.789 223.745,-288.047 223.745,-279.069"/>
<polygon fill="black" stroke="black" points="227.245,-279.029 223.745,-269.029 220.245,-279.029 227.245,-279.029"/>
</g>
<!-- Id0000000000a11880 -->
<g id="node20" class="node"><title>Id0000000000a11880</title>
<ellipse fill="none" stroke="black" cx="295.745" cy="-324" rx="27" ry="18"/>
<text text-anchor="middle" x="295.745" y="-320.3" font-family="Times New Roman,serif" font-size="14.00">stmt</text>
</g>
<!-- IdBody0000000000a118f0&#45;&gt;Id0000000000a11880 -->
<g id="edge18" class="edge"><title>IdBody0000000000a118f0&#45;&gt;Id0000000000a11880</title>
<path fill="none" stroke="black" d="M298.018,-378.813C297.679,-370.789 297.268,-361.047 296.888,-352.069"/>
<polygon fill="black" stroke="black" points="300.383,-351.872 296.464,-342.029 293.389,-352.168 300.383,-351.872"/>
</g>
<!-- Id0000000000a11840 -->
<g id="node21" class="node"><title>Id0000000000a11840</title>
<ellipse fill="none" stroke="black" cx="295.745" cy="-251" rx="27" ry="18"/>
<text text-anchor="middle" x="295.745" y="-247.3" font-family="Times New Roman,serif" font-size="14.00">=</text>
</g>
<!-- Id0000000000a11880&#45;&gt;Id0000000000a11840 -->
<g id="edge17" class="edge"><title>Id0000000000a11880&#45;&gt;Id0000000000a11840</title>
<path fill="none" stroke="black" d="M295.745,-305.813C295.745,-297.789 295.745,-288.047 295.745,-279.069"/>
<polygon fill="black" stroke="black" points="299.245,-279.029 295.745,-269.029 292.245,-279.029 299.245,-279.029"/>
</g>
<!-- Id0000000000a117c0 -->
<g id="node22" class="node"><title>Id0000000000a117c0</title>
<ellipse fill="none" stroke="black" cx="242.745" cy="-164" rx="61.99" ry="18"/>
<text text-anchor="middle" x="242.745" y="-160.3" font-family="Times New Roman,serif" font-size="14.00">var or method</text>
</g>
<!-- Id0000000000a11840&#45;&gt;Id0000000000a117c0 -->
<g id="edge15" class="edge"><title>Id0000000000a11840&#45;&gt;Id0000000000a117c0</title>
<path fill="none" stroke="black" d="M285.776,-234.012C278.15,-221.783 267.484,-204.677 258.679,-190.556"/>
<polygon fill="black" stroke="black" points="261.474,-188.422 253.213,-181.789 255.534,-192.126 261.474,-188.422"/>
</g>
<!-- Id0000000000a11800 -->
<g id="node24" class="node"><title>Id0000000000a11800</title>
<ellipse fill="none" stroke="black" cx="349.745" cy="-164" rx="27" ry="18"/>
<text text-anchor="middle" x="349.745" y="-160.3" font-family="Times New Roman,serif" font-size="14.00">INT</text>
</g>
<!-- Id0000000000a11840&#45;&gt;Id0000000000a11800 -->
<g id="edge16" class="edge"><title>Id0000000000a11840&#45;&gt;Id0000000000a11800</title>
<path fill="none" stroke="black" d="M305.902,-234.012C313.821,-221.546 324.96,-204.013 334.028,-189.739"/>
<polygon fill="black" stroke="black" points="337.225,-191.234 339.633,-180.916 331.316,-187.48 337.225,-191.234"/>
</g>
<!-- IdVal0000000000a117c0 -->
<g id="node23" class="node"><title>IdVal0000000000a117c0</title>
<ellipse fill="none" stroke="black" cx="242.745" cy="-91" rx="27" ry="18"/>
<text text-anchor="middle" x="242.745" y="-87.3" font-family="Times New Roman,serif" font-size="14.00">s</text>
</g>
<!-- Id0000000000a117c0&#45;&gt;IdVal0000000000a117c0 -->
<g id="edge13" class="edge"><title>Id0000000000a117c0&#45;&gt;IdVal0000000000a117c0</title>
<path fill="none" stroke="black" d="M242.745,-145.813C242.745,-137.789 242.745,-128.047 242.745,-119.069"/>
<polygon fill="black" stroke="black" points="246.245,-119.029 242.745,-109.029 239.245,-119.029 246.245,-119.029"/>
</g>
<!-- IdVal0000000000a11800 -->
<g id="node25" class="node"><title>IdVal0000000000a11800</title>
<ellipse fill="none" stroke="black" cx="349.745" cy="-91" rx="27" ry="18"/>
<text text-anchor="middle" x="349.745" y="-87.3" font-family="Times New Roman,serif" font-size="14.00">1</text>
</g>
<!-- Id0000000000a11800&#45;&gt;IdVal0000000000a11800 -->
<g id="edge14" class="edge"><title>Id0000000000a11800&#45;&gt;IdVal0000000000a11800</title>
<path fill="none" stroke="black" d="M349.745,-145.813C349.745,-137.789 349.745,-128.047 349.745,-119.069"/>
<polygon fill="black" stroke="black" points="353.245,-119.029 349.745,-109.029 346.245,-119.029 353.245,-119.029"/>
</g>
<!-- Id0000000000a119b0 -->
<g id="node27" class="node"><title>Id0000000000a119b0</title>
<ellipse fill="none" stroke="black" cx="506.745" cy="-397" rx="27" ry="18"/>
<text text-anchor="middle" x="506.745" y="-393.3" font-family="Times New Roman,serif" font-size="14.00">==</text>
</g>
<!-- Id0000000000a11b20&#45;&gt;Id0000000000a119b0 -->
<g id="edge25" class="edge"><title>Id0000000000a11b20&#45;&gt;Id0000000000a119b0</title>
<path fill="none" stroke="black" d="M526.205,-469.256C519.398,-463.546 512.585,-456.303 508.745,-448 505.485,-440.953 504.258,-432.732 504.041,-425.016"/>
<polygon fill="black" stroke="black" points="507.541,-425.044 504.276,-414.965 500.543,-424.88 507.541,-425.044"/>
<text text-anchor="middle" x="535.245" y="-436.8" font-family="Times New Roman,serif" font-size="14.00">condition</text>
</g>
<!-- IdBody0000000000a11b20 -->
<g id="node32" class="node"><title>IdBody0000000000a11b20</title>
<ellipse fill="none" stroke="black" cx="581.745" cy="-397" rx="29.795" ry="18"/>
<text text-anchor="middle" x="581.745" y="-393.3" font-family="Times New Roman,serif" font-size="14.00">body</text>
</g>
<!-- Id0000000000a11b20&#45;&gt;IdBody0000000000a11b20 -->
<g id="edge32" class="edge"><title>Id0000000000a11b20&#45;&gt;IdBody0000000000a11b20</title>
<path fill="none" stroke="black" d="M556.483,-466.581C559.676,-460.821 563.084,-454.232 565.745,-448 568.93,-440.54 571.834,-432.224 574.268,-424.548"/>
<polygon fill="black" stroke="black" points="577.625,-425.539 577.18,-414.953 570.926,-423.505 577.625,-425.539"/>
</g>
<!-- Id0000000000a11930 -->
<g id="node28" class="node"><title>Id0000000000a11930</title>
<ellipse fill="none" stroke="black" cx="402.745" cy="-324" rx="61.99" ry="18"/>
<text text-anchor="middle" x="402.745" y="-320.3" font-family="Times New Roman,serif" font-size="14.00">var or method</text>
</g>
<!-- Id0000000000a119b0&#45;&gt;Id0000000000a11930 -->
<g id="edge23" class="edge"><title>Id0000000000a119b0&#45;&gt;Id0000000000a11930</title>
<path fill="none" stroke="black" d="M488.629,-383.633C473.725,-373.458 452.244,-358.793 434.494,-346.675"/>
<polygon fill="black" stroke="black" points="436.357,-343.709 426.125,-340.961 432.41,-349.49 436.357,-343.709"/>
</g>
<!-- Id0000000000a11970 -->
<g id="node30" class="node"><title>Id0000000000a11970</title>
<ellipse fill="none" stroke="black" cx="509.745" cy="-324" rx="27" ry="18"/>
<text text-anchor="middle" x="509.745" y="-320.3" font-family="Times New Roman,serif" font-size="14.00">INT</text>
</g>
<!-- Id0000000000a119b0&#45;&gt;Id0000000000a11970 -->
<g id="edge24" class="edge"><title>Id0000000000a119b0&#45;&gt;Id0000000000a11970</title>
<path fill="none" stroke="black" d="M507.471,-378.813C507.81,-370.789 508.221,-361.047 508.601,-352.069"/>
<polygon fill="black" stroke="black" points="512.1,-352.168 509.025,-342.029 505.106,-351.872 512.1,-352.168"/>
</g>
<!-- IdVal0000000000a11930 -->
<g id="node29" class="node"><title>IdVal0000000000a11930</title>
<ellipse fill="none" stroke="black" cx="402.745" cy="-251" rx="27" ry="18"/>
<text text-anchor="middle" x="402.745" y="-247.3" font-family="Times New Roman,serif" font-size="14.00">a</text>
</g>
<!-- Id0000000000a11930&#45;&gt;IdVal0000000000a11930 -->
<g id="edge21" class="edge"><title>Id0000000000a11930&#45;&gt;IdVal0000000000a11930</title>
<path fill="none" stroke="black" d="M402.745,-305.813C402.745,-297.789 402.745,-288.047 402.745,-279.069"/>
<polygon fill="black" stroke="black" points="406.245,-279.029 402.745,-269.029 399.245,-279.029 406.245,-279.029"/>
</g>
<!-- IdVal0000000000a11970 -->
<g id="node31" class="node"><title>IdVal0000000000a11970</title>
<ellipse fill="none" stroke="black" cx="485.745" cy="-251" rx="27" ry="18"/>
<text text-anchor="middle" x="485.745" y="-247.3" font-family="Times New Roman,serif" font-size="14.00">1</text>
</g>
<!-- Id0000000000a11970&#45;&gt;IdVal0000000000a11970 -->
<g id="edge22" class="edge"><title>Id0000000000a11970&#45;&gt;IdVal0000000000a11970</title>
<path fill="none" stroke="black" d="M504.057,-306.174C501.247,-297.862 497.792,-287.641 494.643,-278.326"/>
<polygon fill="black" stroke="black" points="497.909,-277.058 491.391,-268.705 491.278,-279.299 497.909,-277.058"/>
</g>
<!-- Id0000000000a11ab0 -->
<g id="node33" class="node"><title>Id0000000000a11ab0</title>
<ellipse fill="none" stroke="black" cx="581.745" cy="-324" rx="27" ry="18"/>
<text text-anchor="middle" x="581.745" y="-320.3" font-family="Times New Roman,serif" font-size="14.00">stmt</text>
</g>
<!-- IdBody0000000000a11b20&#45;&gt;Id0000000000a11ab0 -->
<g id="edge31" class="edge"><title>IdBody0000000000a11b20&#45;&gt;Id0000000000a11ab0</title>
<path fill="none" stroke="black" d="M581.745,-378.813C581.745,-370.789 581.745,-361.047 581.745,-352.069"/>
<polygon fill="black" stroke="black" points="585.245,-352.029 581.745,-342.029 578.245,-352.029 585.245,-352.029"/>
</g>
<!-- Id0000000000a11a70 -->
<g id="node34" class="node"><title>Id0000000000a11a70</title>
<ellipse fill="none" stroke="black" cx="585.745" cy="-251" rx="55.4913" ry="18"/>
<text text-anchor="middle" x="585.745" y="-247.3" font-family="Times New Roman,serif" font-size="14.00">method_call</text>
</g>
<!-- Id0000000000a11ab0&#45;&gt;Id0000000000a11a70 -->
<g id="edge30" class="edge"><title>Id0000000000a11ab0&#45;&gt;Id0000000000a11a70</title>
<path fill="none" stroke="black" d="M582.713,-305.813C583.165,-297.789 583.714,-288.047 584.219,-279.069"/>
<polygon fill="black" stroke="black" points="587.717,-279.21 584.785,-269.029 580.728,-278.816 587.717,-279.21"/>
</g>
<!-- IdMethodNameVal0000000000a11a70 -->
<g id="node35" class="node"><title>IdMethodNameVal0000000000a11a70</title>
<ellipse fill="none" stroke="black" cx="569.745" cy="-164" rx="27.0966" ry="18"/>
<text text-anchor="middle" x="569.745" y="-160.3" font-family="Times New Roman,serif" font-size="14.00">print</text>
</g>
<!-- Id0000000000a11a70&#45;&gt;IdMethodNameVal0000000000a11a70 -->
<g id="edge26" class="edge"><title>Id0000000000a11a70&#45;&gt;IdMethodNameVal0000000000a11a70</title>
<path fill="none" stroke="black" d="M582.507,-232.799C580.302,-221.086 577.338,-205.342 574.822,-191.974"/>
<polygon fill="black" stroke="black" points="578.212,-191.065 572.923,-181.885 571.333,-192.36 578.212,-191.065"/>
<text text-anchor="middle" x="593.745" y="-203.8" font-family="Times New Roman,serif" font-size="14.00">name</text>
</g>
<!-- Id0000000000a11a50 -->
<g id="node36" class="node"><title>Id0000000000a11a50</title>
<ellipse fill="none" stroke="black" cx="651.745" cy="-164" rx="37.0935" ry="18"/>
<text text-anchor="middle" x="651.745" y="-160.3" font-family="Times New Roman,serif" font-size="14.00">params</text>
</g>
<!-- Id0000000000a11a70&#45;&gt;Id0000000000a11a50 -->
<g id="edge27" class="edge"><title>Id0000000000a11a70&#45;&gt;Id0000000000a11a50</title>
<path fill="none" stroke="black" d="M598.784,-233.207C608.49,-220.706 621.887,-203.452 632.778,-189.426"/>
<polygon fill="black" stroke="black" points="635.811,-191.227 639.18,-181.182 630.282,-186.934 635.811,-191.227"/>
</g>
<!-- Id0000000000a11a10 -->
<g id="node37" class="node"><title>Id0000000000a11a10</title>
<ellipse fill="none" stroke="black" cx="651.745" cy="-91" rx="27" ry="18"/>
<text text-anchor="middle" x="651.745" y="-87.3" font-family="Times New Roman,serif" font-size="14.00">INT</text>
</g>
<!-- Id0000000000a11a50&#45;&gt;Id0000000000a11a10 -->
<g id="edge29" class="edge"><title>Id0000000000a11a50&#45;&gt;Id0000000000a11a10</title>
<path fill="none" stroke="black" d="M651.745,-145.813C651.745,-137.789 651.745,-128.047 651.745,-119.069"/>
<polygon fill="black" stroke="black" points="655.245,-119.029 651.745,-109.029 648.245,-119.029 655.245,-119.029"/>
</g>
<!-- IdVal0000000000a11a10 -->
<g id="node38" class="node"><title>IdVal0000000000a11a10</title>
<ellipse fill="none" stroke="black" cx="651.745" cy="-18" rx="27" ry="18"/>
<text text-anchor="middle" x="651.745" y="-14.3" font-family="Times New Roman,serif" font-size="14.00">1</text>
</g>
<!-- Id0000000000a11a10&#45;&gt;IdVal0000000000a11a10 -->
<g id="edge28" class="edge"><title>Id0000000000a11a10&#45;&gt;IdVal0000000000a11a10</title>
<path fill="none" stroke="black" d="M651.745,-72.8129C651.745,-64.7895 651.745,-55.0475 651.745,-46.0691"/>
<polygon fill="black" stroke="black" points="655.245,-46.0288 651.745,-36.0288 648.245,-46.0289 655.245,-46.0288"/>
</g>
<!-- Id0000000000a19e40 -->
<g id="node40" class="node"><title>Id0000000000a19e40</title>
<ellipse fill="none" stroke="black" cx="713.745" cy="-397" rx="27" ry="18"/>
<text text-anchor="middle" x="713.745" y="-393.3" font-family="Times New Roman,serif" font-size="14.00">==</text>
</g>
<!-- Id0000000000a1ab00&#45;&gt;Id0000000000a19e40 -->
<g id="edge38" class="edge"><title>Id0000000000a1ab00&#45;&gt;Id0000000000a19e40</title>
<path fill="none" stroke="black" d="M713.745,-465.799C713.745,-454.163 713.745,-438.548 713.745,-425.237"/>
<polygon fill="black" stroke="black" points="717.245,-425.175 713.745,-415.175 710.245,-425.175 717.245,-425.175"/>
<text text-anchor="middle" x="740.245" y="-436.8" font-family="Times New Roman,serif" font-size="14.00">condition</text>
</g>
<!-- IdBody0000000000a1ab00 -->
<g id="node45" class="node"><title>IdBody0000000000a1ab00</title>
<ellipse fill="none" stroke="black" cx="799.745" cy="-397" rx="29.795" ry="18"/>
<text text-anchor="middle" x="799.745" y="-393.3" font-family="Times New Roman,serif" font-size="14.00">body</text>
</g>
<!-- Id0000000000a1ab00&#45;&gt;IdBody0000000000a1ab00 -->
<g id="edge45" class="edge"><title>Id0000000000a1ab00&#45;&gt;IdBody0000000000a1ab00</title>
<path fill="none" stroke="black" d="M738.941,-471.074C749.619,-465.174 761.664,-457.311 770.745,-448 777.566,-441.005 783.393,-432.099 787.996,-423.747"/>
<polygon fill="black" stroke="black" points="791.196,-425.178 792.66,-414.684 784.972,-421.974 791.196,-425.178"/>
</g>
<!-- Id0000000000a11b80 -->
<g id="node41" class="node"><title>Id0000000000a11b80</title>
<ellipse fill="none" stroke="black" cx="688.745" cy="-324" rx="61.99" ry="18"/>
<text text-anchor="middle" x="688.745" y="-320.3" font-family="Times New Roman,serif" font-size="14.00">var or method</text>
</g>
<!-- Id0000000000a19e40&#45;&gt;Id0000000000a11b80 -->
<g id="edge36" class="edge"><title>Id0000000000a19e40&#45;&gt;Id0000000000a11b80</title>
<path fill="none" stroke="black" d="M707.82,-379.174C704.936,-370.983 701.399,-360.937 698.157,-351.731"/>
<polygon fill="black" stroke="black" points="701.423,-350.468 694.8,-342.198 694.82,-352.793 701.423,-350.468"/>
</g>
<!-- Id0000000000a19e00 -->
<g id="node43" class="node"><title>Id0000000000a19e00</title>
<ellipse fill="none" stroke="black" cx="795.745" cy="-324" rx="27" ry="18"/>
<text text-anchor="middle" x="795.745" y="-320.3" font-family="Times New Roman,serif" font-size="14.00">INT</text>
</g>
<!-- Id0000000000a19e40&#45;&gt;Id0000000000a19e00 -->
<g id="edge37" class="edge"><title>Id0000000000a19e40&#45;&gt;Id0000000000a19e00</title>
<path fill="none" stroke="black" d="M729.555,-382.31C741.693,-371.801 758.64,-357.127 772.347,-345.259"/>
<polygon fill="black" stroke="black" points="774.714,-347.839 779.983,-338.647 770.132,-342.547 774.714,-347.839"/>
</g>
<!-- IdVal0000000000a11b80 -->
<g id="node42" class="node"><title>IdVal0000000000a11b80</title>
<ellipse fill="none" stroke="black" cx="688.745" cy="-251" rx="27" ry="18"/>
<text text-anchor="middle" x="688.745" y="-247.3" font-family="Times New Roman,serif" font-size="14.00">a</text>
</g>
<!-- Id0000000000a11b80&#45;&gt;IdVal0000000000a11b80 -->
<g id="edge34" class="edge"><title>Id0000000000a11b80&#45;&gt;IdVal0000000000a11b80</title>
<path fill="none" stroke="black" d="M688.745,-305.813C688.745,-297.789 688.745,-288.047 688.745,-279.069"/>
<polygon fill="black" stroke="black" points="692.245,-279.029 688.745,-269.029 685.245,-279.029 692.245,-279.029"/>
</g>
<!-- IdVal0000000000a19e00 -->
<g id="node44" class="node"><title>IdVal0000000000a19e00</title>
<ellipse fill="none" stroke="black" cx="795.745" cy="-251" rx="27" ry="18"/>
<text text-anchor="middle" x="795.745" y="-247.3" font-family="Times New Roman,serif" font-size="14.00">2</text>
</g>
<!-- Id0000000000a19e00&#45;&gt;IdVal0000000000a19e00 -->
<g id="edge35" class="edge"><title>Id0000000000a19e00&#45;&gt;IdVal0000000000a19e00</title>
<path fill="none" stroke="black" d="M795.745,-305.813C795.745,-297.789 795.745,-288.047 795.745,-279.069"/>
<polygon fill="black" stroke="black" points="799.245,-279.029 795.745,-269.029 792.245,-279.029 799.245,-279.029"/>
</g>
<!-- Id0000000000a1aa90 -->
<g id="node46" class="node"><title>Id0000000000a1aa90</title>
<ellipse fill="none" stroke="black" cx="867.745" cy="-324" rx="27" ry="18"/>
<text text-anchor="middle" x="867.745" y="-320.3" font-family="Times New Roman,serif" font-size="14.00">stmt</text>
</g>
<!-- IdBody0000000000a1ab00&#45;&gt;Id0000000000a1aa90 -->
<g id="edge44" class="edge"><title>IdBody0000000000a1ab00&#45;&gt;Id0000000000a1aa90</title>
<path fill="none" stroke="black" d="M814.166,-380.943C823.668,-371.021 836.267,-357.867 846.859,-346.807"/>
<polygon fill="black" stroke="black" points="849.42,-349.193 853.809,-339.55 844.365,-344.351 849.42,-349.193"/>
</g>
<!-- Id0000000000a1a2d0 -->
<g id="node47" class="node"><title>Id0000000000a1a2d0</title>
<ellipse fill="none" stroke="black" cx="867.745" cy="-251" rx="27" ry="18"/>
<text text-anchor="middle" x="867.745" y="-247.3" font-family="Times New Roman,serif" font-size="14.00">=</text>
</g>
<!-- Id0000000000a1aa90&#45;&gt;Id0000000000a1a2d0 -->
<g id="edge43" class="edge"><title>Id0000000000a1aa90&#45;&gt;Id0000000000a1a2d0</title>
<path fill="none" stroke="black" d="M867.745,-305.813C867.745,-297.789 867.745,-288.047 867.745,-279.069"/>
<polygon fill="black" stroke="black" points="871.245,-279.029 867.745,-269.029 864.245,-279.029 871.245,-279.029"/>
</g>
<!-- Id0000000000a19fd0 -->
<g id="node48" class="node"><title>Id0000000000a19fd0</title>
<ellipse fill="none" stroke="black" cx="786.745" cy="-164" rx="61.99" ry="18"/>
<text text-anchor="middle" x="786.745" y="-160.3" font-family="Times New Roman,serif" font-size="14.00">var or method</text>
</g>
<!-- Id0000000000a1a2d0&#45;&gt;Id0000000000a19fd0 -->
<g id="edge41" class="edge"><title>Id0000000000a1a2d0&#45;&gt;Id0000000000a19fd0</title>
<path fill="none" stroke="black" d="M853.635,-235.194C841.516,-222.476 823.811,-203.897 809.66,-189.047"/>
<polygon fill="black" stroke="black" points="812.065,-186.498 802.633,-181.673 806.998,-191.327 812.065,-186.498"/>
</g>
<!-- Id0000000000a1a090 -->
<g id="node50" class="node"><title>Id0000000000a1a090</title>
<ellipse fill="none" stroke="black" cx="893.745" cy="-164" rx="27" ry="18"/>
<text text-anchor="middle" x="893.745" y="-160.3" font-family="Times New Roman,serif" font-size="14.00">INT</text>
</g>
<!-- Id0000000000a1a2d0&#45;&gt;Id0000000000a1a090 -->
<g id="edge42" class="edge"><title>Id0000000000a1a2d0&#45;&gt;Id0000000000a1a090</title>
<path fill="none" stroke="black" d="M872.881,-233.207C876.514,-221.332 881.458,-205.168 885.621,-191.557"/>
<polygon fill="black" stroke="black" points="889.04,-192.345 888.618,-181.758 882.346,-190.297 889.04,-192.345"/>
</g>
<!-- IdVal0000000000a19fd0 -->
<g id="node49" class="node"><title>IdVal0000000000a19fd0</title>
<ellipse fill="none" stroke="black" cx="786.745" cy="-91" rx="27" ry="18"/>
<text text-anchor="middle" x="786.745" y="-87.3" font-family="Times New Roman,serif" font-size="14.00">b</text>
</g>
<!-- Id0000000000a19fd0&#45;&gt;IdVal0000000000a19fd0 -->
<g id="edge39" class="edge"><title>Id0000000000a19fd0&#45;&gt;IdVal0000000000a19fd0</title>
<path fill="none" stroke="black" d="M786.745,-145.813C786.745,-137.789 786.745,-128.047 786.745,-119.069"/>
<polygon fill="black" stroke="black" points="790.245,-119.029 786.745,-109.029 783.245,-119.029 790.245,-119.029"/>
</g>
<!-- IdVal0000000000a1a090 -->
<g id="node51" class="node"><title>IdVal0000000000a1a090</title>
<ellipse fill="none" stroke="black" cx="893.745" cy="-91" rx="27" ry="18"/>
<text text-anchor="middle" x="893.745" y="-87.3" font-family="Times New Roman,serif" font-size="14.00">12</text>
</g>
<!-- Id0000000000a1a090&#45;&gt;IdVal0000000000a1a090 -->
<g id="edge40" class="edge"><title>Id0000000000a1a090&#45;&gt;IdVal0000000000a1a090</title>
<path fill="none" stroke="black" d="M893.745,-145.813C893.745,-137.789 893.745,-128.047 893.745,-119.069"/>
<polygon fill="black" stroke="black" points="897.245,-119.029 893.745,-109.029 890.245,-119.029 897.245,-119.029"/>
</g>
<!-- Id0000000000a1ab40 -->
<g id="node53" class="node"><title>Id0000000000a1ab40</title>
<ellipse fill="none" stroke="black" cx="878.745" cy="-397" rx="27" ry="18"/>
<text text-anchor="middle" x="878.745" y="-393.3" font-family="Times New Roman,serif" font-size="14.00">stmt</text>
</g>
<!-- IdElse0000000000a1ab90&#45;&gt;Id0000000000a1ab40 -->
<g id="edge52" class="edge"><title>IdElse0000000000a1ab90&#45;&gt;Id0000000000a1ab40</title>
<path fill="none" stroke="black" d="M834.611,-466.207C842.674,-453.745 853.795,-436.559 862.855,-422.556"/>
<polygon fill="black" stroke="black" points="865.965,-424.193 868.459,-413.896 860.088,-420.39 865.965,-424.193"/>
</g>
<!-- Id0000000000a1a190 -->
<g id="node54" class="node"><title>Id0000000000a1a190</title>
<ellipse fill="none" stroke="black" cx="974.745" cy="-324" rx="27" ry="18"/>
<text text-anchor="middle" x="974.745" y="-320.3" font-family="Times New Roman,serif" font-size="14.00">=</text>
</g>
<!-- Id0000000000a1ab40&#45;&gt;Id0000000000a1a190 -->
<g id="edge51" class="edge"><title>Id0000000000a1ab40&#45;&gt;Id0000000000a1a190</title>
<path fill="none" stroke="black" d="M896.352,-382.978C911.103,-372.068 932.358,-356.349 949.015,-344.029"/>
<polygon fill="black" stroke="black" points="951.289,-346.7 957.248,-337.94 947.127,-341.072 951.289,-346.7"/>
</g>
<!-- Id0000000000a1a1d0 -->
<g id="node55" class="node"><title>Id0000000000a1a1d0</title>
<ellipse fill="none" stroke="black" cx="974.745" cy="-251" rx="61.99" ry="18"/>
<text text-anchor="middle" x="974.745" y="-247.3" font-family="Times New Roman,serif" font-size="14.00">var or method</text>
</g>
<!-- Id0000000000a1a190&#45;&gt;Id0000000000a1a1d0 -->
<g id="edge49" class="edge"><title>Id0000000000a1a190&#45;&gt;Id0000000000a1a1d0</title>
<path fill="none" stroke="black" d="M974.745,-305.813C974.745,-297.789 974.745,-288.047 974.745,-279.069"/>
<polygon fill="black" stroke="black" points="978.245,-279.029 974.745,-269.029 971.245,-279.029 978.245,-279.029"/>
</g>
<!-- Id0000000000a19f10 -->
<g id="node57" class="node"><title>Id0000000000a19f10</title>
<ellipse fill="none" stroke="black" cx="1081.74" cy="-251" rx="27" ry="18"/>
<text text-anchor="middle" x="1081.74" y="-247.3" font-family="Times New Roman,serif" font-size="14.00">INT</text>
</g>
<!-- Id0000000000a1a190&#45;&gt;Id0000000000a19f10 -->
<g id="edge50" class="edge"><title>Id0000000000a1a190&#45;&gt;Id0000000000a19f10</title>
<path fill="none" stroke="black" d="M993.382,-310.633C1010.34,-299.383 1035.56,-282.643 1054.73,-269.927"/>
<polygon fill="black" stroke="black" points="1056.92,-272.671 1063.32,-264.226 1053.05,-266.838 1056.92,-272.671"/>
</g>
<!-- IdVal0000000000a1a1d0 -->
<g id="node56" class="node"><title>IdVal0000000000a1a1d0</title>
<ellipse fill="none" stroke="black" cx="974.745" cy="-164" rx="27" ry="18"/>
<text text-anchor="middle" x="974.745" y="-160.3" font-family="Times New Roman,serif" font-size="14.00">c</text>
</g>
<!-- Id0000000000a1a1d0&#45;&gt;IdVal0000000000a1a1d0 -->
<g id="edge47" class="edge"><title>Id0000000000a1a1d0&#45;&gt;IdVal0000000000a1a1d0</title>
<path fill="none" stroke="black" d="M974.745,-232.799C974.745,-221.163 974.745,-205.548 974.745,-192.237"/>
<polygon fill="black" stroke="black" points="978.245,-192.175 974.745,-182.175 971.245,-192.175 978.245,-192.175"/>
</g>
<!-- IdVal0000000000a19f10 -->
<g id="node58" class="node"><title>IdVal0000000000a19f10</title>
<ellipse fill="none" stroke="black" cx="1081.74" cy="-164" rx="27" ry="18"/>
<text text-anchor="middle" x="1081.74" y="-160.3" font-family="Times New Roman,serif" font-size="14.00">10</text>
</g>
<!-- Id0000000000a19f10&#45;&gt;IdVal0000000000a19f10 -->
<g id="edge48" class="edge"><title>Id0000000000a19f10&#45;&gt;IdVal0000000000a19f10</title>
<path fill="none" stroke="black" d="M1081.74,-232.799C1081.74,-221.163 1081.74,-205.548 1081.74,-192.237"/>
<polygon fill="black" stroke="black" points="1085.24,-192.175 1081.74,-182.175 1078.24,-192.175 1085.24,-192.175"/>
</g>
</g>
</svg>
